<svg width="84" height="62" viewBox="0 0 84 62" fill="none" xmlns="http://www.w3.org/2000/svg">
<rect width="84" height="62" fill="#F6F6F6"/>
<path d="M37.3333 40.6667C41.0013 40.6667 44.3753 39.4428 47.1018 37.4012L63 53.3005L66.3005 50L50.4012 34.1018C52.4428 31.3753 53.6667 28.0013 53.6667 24.3333C53.6667 15.3127 46.354 8 37.3333 8C28.3127 8 21 15.3127 21 24.3333C21 33.354 28.3127 40.6667 37.3333 40.6667ZM37.3333 12.6667C43.7663 12.6667 49 17.9003 49 24.3333C49 30.7663 43.7663 36 37.3333 36C30.9003 36 25.6667 30.7663 25.6667 24.3333C25.6667 17.9003 30.9003 12.6667 37.3333 12.6667Z" fill="black"/>
</svg>
