<svg width="46" height="46" viewBox="0 0 46 46" fill="none" xmlns="http://www.w3.org/2000/svg">
<path d="M16.3333 32.6667C20.0013 32.6667 23.3753 31.4428 26.1018 29.4012L42 45.3005L45.3005 42L29.4012 26.1018C31.4428 23.3753 32.6667 20.0013 32.6667 16.3333C32.6667 7.31267 25.354 0 16.3333 0C7.31267 0 0 7.31267 0 16.3333C0 25.354 7.31267 32.6667 16.3333 32.6667ZM16.3333 4.66667C22.7663 4.66667 28 9.90033 28 16.3333C28 22.7663 22.7663 28 16.3333 28C9.90033 28 4.66667 22.7663 4.66667 16.3333C4.66667 9.90033 9.90033 4.66667 16.3333 4.66667Z" fill="black"/>
</svg>
