<svg width="130" height="130" viewBox="0 0 130 130" fill="none" xmlns="http://www.w3.org/2000/svg">
<path d="M106.802 89.7707C106.804 89.7711 106.806 89.7711 106.809 89.7707H107.045C108.005 89.7707 108.863 89.1702 109.191 88.2685L129.696 31.9323C129.95 31.2322 129.848 30.4518 129.42 29.8414C128.993 29.2314 128.295 28.8679 127.55 28.8679H86.2969H63.8143H24.1395L19.0472 15.033C19.0424 15.0199 19.036 15.0078 19.0309 14.9947C19.0137 14.9507 18.9952 14.9077 18.9754 14.8653C18.9624 14.8367 18.949 14.8083 18.9347 14.7803C18.9163 14.7443 18.8969 14.7093 18.8764 14.6745C18.8576 14.642 18.8385 14.6098 18.8181 14.5783C18.8 14.5506 18.7809 14.5236 18.7617 14.4968C18.7366 14.4618 18.7114 14.4271 18.6847 14.3939C18.6668 14.3716 18.6481 14.35 18.6296 14.3287C18.5996 14.2943 18.5694 14.2602 18.5379 14.2277C18.5181 14.2076 18.4973 14.1885 18.477 14.169C18.4448 14.1385 18.4129 14.1085 18.3792 14.0799C18.355 14.0595 18.3295 14.0401 18.3046 14.0206C18.2731 13.9964 18.2415 13.9718 18.2091 13.9493C18.1785 13.9279 18.147 13.9082 18.1154 13.8885C18.0865 13.8703 18.0574 13.8521 18.0279 13.8353C17.9912 13.8146 17.9536 13.7958 17.916 13.777C17.8889 13.7636 17.8622 13.7499 17.8345 13.7378C17.7944 13.72 17.7535 13.704 17.7122 13.6881C17.6845 13.6776 17.6567 13.6671 17.6287 13.6576C17.5886 13.6441 17.5485 13.6327 17.5077 13.6215C17.4752 13.6126 17.4427 13.6041 17.4102 13.5964C17.3736 13.5881 17.3369 13.5814 17.2997 13.5747C17.2606 13.568 17.2211 13.5617 17.1812 13.5568C17.1494 13.5531 17.1175 13.5498 17.0853 13.5476C17.0395 13.5438 16.9935 13.5416 16.9477 13.5406C16.9331 13.5403 16.9191 13.5383 16.9043 13.5383H2.44999C1.18892 13.5383 0.166687 14.5605 0.166687 15.8216C0.166687 17.0827 1.18892 18.1049 2.44999 18.1049H15.3115L21.6863 35.425L40.1734 86.2175C40.1645 86.2398 40.1537 86.2611 40.145 86.284L33.8664 103.342C33.8273 103.448 33.7993 103.556 33.7767 103.664C33.6452 103.953 33.57 104.272 33.57 104.61C33.57 105.871 34.5922 106.893 35.8533 106.893H44.7911C45.6304 112.305 50.3213 116.462 55.965 116.462C61.6087 116.462 66.2996 112.305 67.1389 106.893H82.8187C83.658 112.305 88.349 116.462 93.9927 116.462C99.6364 116.462 104.327 112.305 105.167 106.893H111.5C112.761 106.893 113.783 105.871 113.783 104.61C113.783 103.349 112.761 102.327 111.5 102.327H104.943C103.684 97.4548 99.2521 93.8456 93.9927 93.8456C88.7332 93.8456 84.301 97.4548 83.0427 102.327H66.9154C65.6564 97.4548 61.2243 93.8456 55.9651 93.8456C50.7059 93.8456 46.2736 97.4548 45.0147 102.327H39.1067L43.7282 89.7708H106.802V89.7707ZM87.8809 102.327C88.953 100.02 91.2859 98.4123 93.9927 98.4123C96.6993 98.4123 99.0323 100.02 100.104 102.327C100.504 103.187 100.734 104.143 100.734 105.154C100.734 105.756 100.647 106.337 100.498 106.893C99.7281 109.768 97.1073 111.895 93.9927 111.895C90.8779 111.895 88.2572 109.768 87.4871 106.893C87.3383 106.337 87.2513 105.756 87.2513 105.154C87.2514 104.143 87.4809 103.187 87.8809 102.327ZM49.8534 102.327C50.925 100.02 53.2584 98.4123 55.9651 98.4123C58.6717 98.4123 61.0051 100.02 62.0767 102.327C62.4768 103.187 62.7064 104.143 62.7064 105.154C62.7064 105.756 62.6196 106.337 62.4705 106.893C61.7005 109.768 59.0799 111.895 55.9651 111.895C52.8504 111.895 50.2296 109.768 49.4597 106.893C49.3107 106.337 49.2237 105.756 49.2237 105.154C49.2237 104.143 49.4534 103.187 49.8534 102.327ZM46.5705 85.204H44.6646L43.1874 81.1461L39.5943 71.274H58.054V85.204H46.5705ZM112.179 66.7074H91.2757V52.2464H117.442L112.179 66.7074ZM86.7091 66.7074H62.6206V52.2464H86.7091V66.7074ZM58.054 66.7074H37.9321L32.6689 52.2464H58.054V66.7074ZM62.6206 85.204V71.274H86.7091V85.204H62.6206ZM106.923 81.1461L105.447 85.2041H103.541H91.2758V71.274H110.517L106.923 81.1461ZM119.104 47.6797H91.2758V33.4347H124.289L119.104 47.6797ZM65.4131 33.4347H84.6982H86.7091V47.6797H62.6206V33.4347H65.4131ZM25.822 33.4347H58.054V47.6797H31.0069L25.9785 33.8641C25.9781 33.8638 25.9781 33.8638 25.9781 33.8638L25.9752 33.8559L25.822 33.4347Z" fill="#333333"/>
</svg>
